# xmcd
#
# Track frame offsets:
#	150
#	13727
#	27360
#	39487
#	51147
#	67052
#	77520
#	90097
#	103117
#	116527
#	131057
#	144255
#	154875
#	168300
#	181517
#	192577
#	203955
#	215967
#	226647
#	237110
#	249297
#	262972
#	280512
#	296752
#	307980
#
# Disc length: 4228 seconds
# Revision: 0
# Processed by: cddbd v1.5.2PL0 Copyright (c) Steve Scherf et al.
# Submitted via: dBpowerAMP V12.0
#
DISCID=53108219
DTITLE=Country Express - Aarteet
DYEAR=1994
DGENRE=Country
TTITLE0=Dady Frank
TTITLE1=Ride me Down Easy
TTITLE2=Streets of Baltimore
TTITLE3=North to Chicago
TTITLE4=Jealous Heart
TTITLE5=Is Anybody Going to San Antonio
TTITLE6=My Old Love
TTITLE7=Help me Take it Through The Night
TTITLE8=Branded Man
TTITLE9=If Youve Got a Restless Mind
TTITLE10=Good Time Charlies Got The Blues
TTITLE11=Charm of Country Music
TTITLE12=Leavin Something Left to do
TTITLE13=Weekend Daddy
TTITLE14=They Covered up The Old Swimmin Hole
TTITLE15=Turn Out The Light And Love me Tonight
TTITLE16=Tennessee Girl
TTITLE17=Beaty Colored Green a
TTITLE18=Searching For The Morning Sun
TTITLE19=I' Just me
TTITLE20=After Sweet Memories Play Born to Lose Again
TTITLE21=Ap 76 Setting Sun
TTITLE22=Yes Virginia
TTITLE23=Sometimes I've Got to Get Relaxed
TTITLE24=Jambalaya
EXTD=
EXTT0=
EXTT1=
EXTT2=
EXTT3=
EXTT4=
EXTT5=
EXTT6=
EXTT7=
EXTT8=
EXTT9=
EXTT10=
EXTT11=
EXTT12=
EXTT13=
EXTT14=
EXTT15=
EXTT16=
EXTT17=
EXTT18=
EXTT19=
EXTT20=
EXTT21=
EXTT22=
EXTT23=
EXTT24=
PLAYORDER=
